<?xml version="1.0" encoding="UTF-8"?>
<svg id="Capa_2" data-name="Capa 2" xmlns="http://www.w3.org/2000/svg" viewBox="0 0 1080 1080">
  <defs>
    <style>
      .cls-1 {
        fill: #fff;
      }
    </style>
  </defs>
  <path class="cls-1" d="M280.03,800.68V280.7H800.51v289.88h-30.03c0-79.52,0-177.7,0-258.61H311.67v458.62c55.25-55.89,108.24-109.5,163.81-165.72,10.92,13.45,19.94,24.56,28.65,35.29,45.3-45.61,88.02-88.63,129.63-130.52,33.37,33.77,64.28,65.04,94.8,95.92h-57.03s0-.01-4.32,4.31c-31.73,30.78-62.82,62.22-96.12,95.48,32.28,31.67,63.64,62.45,97.14,95.32H280.03Z"/>
  <path class="cls-1" d="M474.28,409.41c.1,34.68-29.43,64.55-64.12,64.85-35.7,.31-65.11-28.82-65.6-64.98-.47-34.37,29.21-64.4,64.04-64.8,35.47-.4,65.57,29.36,65.68,64.92Z"/>
  <path class="cls-1" d="M705.63,640.12h30.88v64.96h63.66v30.94h-63v64.29h-31.44v-63.14h-64.91v-31.58h64.79v-65.47Z"/>
</svg>